<svg class="svg-icon" style="width: 1em; height: 1em;vertical-align: middle;fill: currentColor;overflow: hidden;" viewBox="0 0 1024 1024" version="1.1" xmlns="http://www.w3.org/2000/svg">
    <path d="M96.7 877.6c-0.1 0-0.1 0 0 0-8.9 0-16-7.2-16-16.1l2.6-762.3c0-8.8 7.2-15.9 16-15.9h0.1c8.8 0 16 7.2 15.9 16.1l-2.6 762.3c-0.1 8.7-7.2 15.9-16 15.9z" fill="" />
    <path d="M880 877.6H98c-8.8 0-16-7.2-16-16s7.2-16 16-16h782c8.8 0 16 7.2 16 16s-7.2 16-16 16z" fill="" />
    <path d="M262.6 614.1m-38 0a38 38 0 1 0 76 0 38 38 0 1 0-76 0Z" fill="" />
    <path d="M417.8 471.9m-38 0a38 38 0 1 0 76 0 38 38 0 1 0-76 0Z" fill="" />
    <path d="M572.9 548m-38 0a38 38 0 1 0 76 0 38 38 0 1 0-76 0Z" fill="" />
    <path d="M728.1 331.2m-38 0a38 38 0 1 0 76 0 38 38 0 1 0-76 0Z" fill="" />
    <path d="M273.4 625.9l-21.6-23.6L415 452.8l152.8 74.9 147.3-205.8 26 18.6-163 227.9-157.6-77.3z" fill="" />
</svg>